<?xml version="1.0" encoding="UTF-8"?><svg id="_レイヤー_2" xmlns="http://www.w3.org/2000/svg" viewBox="0 0 173.98438 807.79834"><defs><style>.cls-1{fill:#00c1e9;}.cls-2{fill:#00a3e9;}.cls-3{fill:#00b2e9;}.cls-4{fill:#4cd1ed;}</style></defs><g id="_飾り文字_キャッチ01"><g><path class="cls-2" d="M37.32129,193.11182c-2.65039,0-3.54297,0-3.54297-4.37988,0-1.2666,.19922-4.98633,.39258-8.5835,.20508-3.81738,.39844-7.42285,.39844-8.79639,.39551-14.69434,.59473-71.27686,.59473-77.44043,0-17.57861-.32812-19.21533-.43555-19.75293l-.02734-.11865c-1.38281-5.22852-5.88477-5.22852-8.86328-5.22852-5.4541,0-10.92188,.19141-14.54102,.31836-1.94141,.06787-3.47559,.12158-4.26855,.12158h-.3584l-.33594,.12451c-.39746,.12207-2.24316,.41016-3.11133,.50488-.12402-.15137-.29492-.37793-.51172-.67822l-2.71094-3.64746c2.00391,.20361,4.36621,.49072,5.08008,.62256l.13965,.02637,.81543,.0332c5.37891,.22168,15.3916,.63379,19.80273,.63379,8.92969,0,8.92969-5.03223,8.92969-10.35986,0-4.06641-.60352-27.49707-.99316-34-.09473-2.11426-.37109-5.88232-.63867-9.52637-.26855-3.65723-.5459-7.43945-.5459-8.39404,0-.62744,.03906-1.01758,.07812-1.25293,2.89746,.64941,14.32031,4.81299,16.51074,6.99707-.43848,.60449-1.26562,1.53076-1.76074,2.08545-1.01367,1.13623-1.55566,1.75635-1.82227,2.35059l-.04883,.11768c-.30566,.81494-1.11719,2.97949-1.11719,38.32275,0,9.09473,0,13.65967,7.74219,13.65967h20.39355c8.53418,0,8.53418-6.31445,8.53418-13,0-9.23828,0-30.87305-.59961-39.08545-.07617-.84961-.29883-2.65088-.55664-4.73584-.40723-3.29199-1.02246-8.26709-1.02246-9.41895,0-.33936,.07031-.54492,.1123-.63086,3.66309,.59375,15.80566,4.45264,16.46875,6.76758-.25781,.43457-1.35547,1.65479-2.84082,3.30566-1.6543,1.83691-1.87891,4.72119-2.08789,7.51758-.40625,3.24121-.40625,11.05811-.40625,23.96045,0,16.66455,.4082,21.68164,1.90039,23.33838,1.7832,1.98145,4.92578,1.98145,6.43555,1.98145h15.64258c1.63477,0,5.97852,0,7.43262-4.20605,.24707-.60986,.90332-2.24805,.90332-22.43408,0-8.27588,0-23.68018-1.00977-30.85889l-.19336-1.04199c-.20898-1.10205-.76367-4.02881-.77734-4.62598,0-.43213,.13184-.56934,.24512-.61328,1.95996,.55273,13.27539,4.5415,15.47461,5.35547,.33789,.125,.83496,.63672,.87012,1.54199-.19141,.64795-1.32617,2.4292-1.94434,3.40039-.77539,1.21729-1.24023,1.95752-1.4668,2.5376-1.15234,2.58691-1.53711,5.13916-1.53711,14.84473v29.04004c0,7.06006,4.63965,7.06006,8.73242,7.06006,2.58594,0,6.91504,0,11.05176-7.4043,1.95215-3.37354,3.90527-6.52441,4.91504-6.67041,2.81836,.75,15.53809,12.14307,16.85645,15.06787-.36035,.94727-4.6582,.94727-8.46973,.94727h-24.94824c-7.69238,0-8.33594,4.7915-8.33594,9.69971v28.82031c0,2.83398,.20801,10.57422,.40918,18.05957,.18848,7.00586,.38379,14.25049,.38379,16.70068,0,3.78613-.24609,4.75977-2.85645,6.46582-1.41602,.89844-3.76172,1.87402-6.03418,1.87402-1.48145,0-2.1582,0-2.1582-3.5,0-6.03125,0-11.23975-8.33594-11.23975h-14.84961c-7.41992,0-7.55469,4.04053-7.74121,9.63281-.14551,4.2207-6.73047,7.30713-9.48438,7.30713-1.38574,0-1.95996,0-1.95996-3.28027,0-1.88916,.20996-7.25342,.41309-12.44092,.19531-4.979,.37891-9.68164,.37891-11.31885,0-2.5127,.19238-16.40723,.3623-28.66602,.12402-8.96631,.23145-16.70996,.23145-17.75439,0-6.87109-1.25879-10.35986-8.1377-10.35986h-20.39355c-7.94043,0-7.94043,3.68604-7.94043,17.3999,0,9.86035,.32324,80.61572,1.62891,86.66211,1.20996,4.71045,4.36719,5.09814,7.49902,5.09814h79.79395c7.83203,0,11.07324,0,15.20898-7.40479,2.57617-4.61133,4.01367-6.56738,4.91211-6.6709,2.81738,.74414,15.59668,12.19336,16.86816,15.08789-.00098,.00391-.00195,.00684-.00293,.00781-.51758,.92041-6.29883,.92041-8.47461,.92041H53.35938c-7.11133,0-7.56445,4.28564-7.92871,7.72949-.44238,3.76611-5.00879,5.47021-8.10938,5.47021Zm61.57812-124.30029c-1.89844,0-5.84766,0-7.56641,3.81934l-.05762,.14307c-.24902,.69141-.91016,2.52832-.91016,28.39746,0,26.08936,.66113,27.92627,.91016,28.61768,1.44824,4.18262,5.77637,4.18262,7.62402,4.18262h14.45312c2.26758,0,6.98633,0,8.09961-5.56787,.52344-2.71436,.63281-21.21094,.63281-36.25244,0-21.13086,0-23.33984-8.53418-23.33984h-14.65137Z"/><path class="cls-3" d="M110.18457,471.85596c-2.72461,0-3.93945-.82324-3.93945-5.7002,0-1.44678,.19043-5.99219,.37402-10.38818,.20605-4.90234,.41797-9.97168,.41797-11.83203,0-6.56201,0-26.53076-1.60059-38.76025-.07617-.76172-.36816-2.46631-.73926-4.62451-.50684-2.95068-1.19824-6.97168-1.22266-8.24707,.42578,.10645,1.28809,.35596,1.89746,.53271,1.81152,.5249,2.61035,.73877,3.22852,.73877,1.76074,0,2.99023-1.18408,2.99023-2.87988,0-2.07764-3.03125-4.90527-3.58789-5.40771-4.47852-4.55713-12.59961-15.08105-16.13672-20.54004l-.11426-.17773c-.86719-1.34814-1.62402-2.52637-2.35938-3.47412,.77051,.9043,1.84766,2.0127,3.33691,3.50977,20.63672,21.5415,45.0459,34.04297,74.59668,38.19043,1.82227,.23828,4.56445,.59668,6.6582,.92334l-.15625,.06396c-9.09961,3.14551-12.51367,4.33154-16.22363,8.4541-2.37402,2.63818-2.64746,2.63818-3.66211,2.63818-2.81543,0-15.99805-6.79053-23.51074-11.36816l-1.03125-.63721c-4.65234-2.87646-5.49023-3.39502-7.5332-3.39502-6.1582,0-6.1582,5.62256-6.1582,10.14014,0,3.67627,.41602,13.98535,.85547,24.89941,.45605,11.2998,.92676,22.98486,.92676,27.24072,0,9.61377-6.08691,10.10059-7.30664,10.10059Zm-86.10156-3.99121c3.3291-2.71094,6.77246-5.51465,7.92871-6.68262,6.67188-6.65332,20.57617-20.51758,20.57617-52.66699,0-1.79053-.21582-4.25098-.38867-6.22803-.10645-1.20605-.20605-2.34521-.20605-2.79199v-.25293l-.0625-.24463c-.60254-2.34619-2.49512-3.92236-4.70898-3.92236-1.29395,0-3.83984,1.88623-5.77246,3.49219-10.5459,7.43994-28.5752,15.99365-38.62402,18.72314,13.16992-6.92871,25.5498-15.4375,37.78125-25.95947,13.43457-11.81787,26.03906-29.18799,26.03906-32.97607,0-2.34961-1.46191-4.85986-5.56445-4.85986h-22.37305c-5.79688,0-6.71875,.77246-8.84668,4.71289-1.01562,1.77783-4.11816,3.42725-6.39941,3.42725-.92578,0-3.74219,0-3.74219-6.58008,0-1.3457,.14258-5.61377,.28027-9.74121,.1543-4.62939,.31348-9.4165,.31348-11.15918,0-3.60059-.03906-35.43213-1.40918-44.30518-.09766-.65332-.42969-1.69971-1.00684-3.4917-.35156-1.09277-.93359-2.90039-1.20215-4.00098,1.8877,.41016,6.31152,2.05518,8.83301,2.99268,2.13672,.79443,3.82422,1.42188,4.72461,1.67236,3.58203,1.17285,6.39355,1.17285,8.65234,1.17285H127.41113c8.40039,0,10.14941,0,13.31152-3.24414l.62109-.60938c2.71094-2.66406,3.30957-3.18652,4.08496-3.18652,1.7002,.35107,7.92871,7.14746,8.68848,9.17236-.02637,.48633-.29199,.70752-2.9707,2.28369-3.3623,2.17627-3.3623,6.14355-3.3623,9.64404,0,3.77197,.27734,14.29102,.57129,25.42773,.30273,11.52051,.61719,23.43262,.61719,27.8125,0,6.3418-3.47656,9.65967-6.91016,9.65967-1.87695,0-2.25293-.64893-3.09082-5.34131l-.08789-.49316c-.61133-3.85156-2.875-5.8252-6.7207-5.8252h-40.3916c-3.77148,0-4.17871,2.47559-4.17871,3.54004,0,1.24951,.29297,2.15039,1.32129,3.4751-1.07227-1.24023-2.13867-1.95508-3.47852-1.95508-2.27832,0-3.56738,1.43262-4.25977,2.20264-7.41211,8.00732-18.27051,19.4082-21.49512,22.56934l-.08691,.09131c-.20508,.22803-.58594,.6001-1.02441,1.03174-2.60547,2.56396-3.44727,3.49463-3.44727,4.70508,0,3.09229,2.39746,3.3125,4.5127,3.50635l1.24512,.12549c5.10547,.52295,7.40625,.87842,7.50488,2.01074-.0625,.1626-.38672,.85059-1.68066,1.71338-2.01367,1.27783-2.87109,2.44238-2.87109,6.28418-.18164,7.06055-.7002,16.54248-3.11523,26.82227-6.3125,26.22168-28.9873,36.51611-38.4375,39.71631,.60645-.49512,1.22168-.99609,1.80273-1.46924Zm72.83594-146.48975c-7.3457,0-7.3457,5.57227-7.3457,9.25977v13.86035c0,4.42236,3.03906,7.27979,7.74219,7.27979h34.64941c7.14746,0,7.14746-4.8833,7.14746-19.37988,0-5.66699,0-11.02002-7.54297-11.02002h-34.65039Zm-59.99316,0c-7.14746,0-7.14746,5.97607-7.14746,7.93994,0,20.33447,0,22.45996,7.93945,22.45996h34.45117c4.74316,0,7.14844-2.89355,7.14844-8.6001,0-11.84277-.10449-14.56592-.20703-15.38477-.16797-2.43604-1.38574-6.41504-7.53516-6.41504H36.92578Zm60.58691-31.24023c-8.33594,0-8.33594,4.71436-8.33594,11.23975,0,14.40771,0,18.28027,7.54492,18.28027h35.24316c2.08984,0,6.9502-.77344,6.9502-7.93994,0-18.86865-.51465-21.58008-8.33594-21.58008h-33.06641Zm-60.19141,0c-7.54297,0-7.54297,5.51123-7.54297,8.15967,0,18.51465,0,21.36035,7.3457,21.36035h34.64941c7.54395,0,7.54395-3.38281,7.54395-17.62012,0-6.64844,0-11.8999-7.74219-11.8999H37.32129Z"/><path class="cls-1" d="M103.84863,730.13525c-16.33008,0-27.61523-6.23486-33.54004-18.53076-4.85059-10.06592-4.85059-21.6167-4.85059-26.54932,0-48.01562,17.54883-72.73242,28.05762-83.22119,5.60156-4.67285,5.60156-5.18066,5.60156-6.09912,0-.57227-.22949-2.43945-3.18848-2.43945-11.99512,0-53.21582,19.46338-60.08105,23.85547l-.61719,.37012c-2.01367,1.21436-3.60547,2.17383-5.03613,2.17383-4.90625,0-9.82422-4.49414-12.54492-8.34229-1.97949-2.80029-2.60645-4.8374-2.70312-5.78418,.96289,.09521,2.37598,.43311,3.4502,.69043,1.3623,.32617,2.10059,.49658,2.68945,.49658,8.56836,0,11.37109-.80908,39.01465-9.55322l1.7998-.56201c18.34082-5.729,61.29102-19.14551,73.62793-19.14551,5.64258,0,14.03809,2.27979,14.03809,8.56055,0,4.68457-4.48438,6.13965-6.11816,6.13965-1.16406,0-5.08984-.6958-8.24512-1.25488-4.0752-.72217-6.63184-1.16504-7.79199-1.16504-14.0127,0-27.73926,7.56787-37.65918,20.76318-11.51562,15.31738-17.60254,37.35742-17.60254,63.73779,0,38.18213,13.50098,41.37988,26.15625,41.37988,1.75391,0,6.96484-.42041,11.5625-.7915,3.21973-.26025,6.5498-.52881,7.24707-.52881,5.11035,0,7.70215,2.06592,7.70215,6.14062,0,9.54932-20.1123,9.65918-20.96875,9.65918Zm36.82812-69.74023c-2.07422,0-3.65527-3.37598-6.6377-11.45264-2.2627-6.40283-3.77539-8.55566-10.13965-17.6167-.46582-.68994-.86523-1.35986-1.15332-1.89746,.33691,.0166,.69043,.06787,1.01758,.14844,16.48047,4.95703,21.84277,18.17725,21.84277,23.79883,0,4.00537-2.99023,7.01953-4.92969,7.01953Zm25.14551-11.43945c-3.16895,0-5.09277-5.15527-6.79004-9.7041l-.24609-.6582c-1.84668-5.01514-7.94922-13.26611-13.59863-18.38086-.31348-.27832-.54297-.50488-.70898-.69043,.10547-.00439,.22461-.00684,.35645-.00684,1.11914,0,2.94336,.48975,4.25488,.9751,12.06348,4.31738,20.47461,13.49414,20.47461,22.32471,0,4.50537-2.23828,6.14062-3.74219,6.14062Z"/><path class="cls-4" d="M158.05469,807.79834c-2.19727,0-2.50098-.24951-8.2793-10.75488-3.37402-5.90625-7.89746-12.24463-18.05762-18.85303,8.8252,1.79248,31.37695,10.2168,31.37695,23.33643,0,3.31885-2.81836,6.27148-5.04004,6.27148Z"/></g></g></svg>