<?xml version="1.0" encoding="UTF-8"?><svg id="_レイヤー_2" xmlns="http://www.w3.org/2000/svg" viewBox="0 0 92.46973 597.98291"><defs><style>.cls-1{fill:#00c3eb;}.cls-2{fill:#00b4eb;}.cls-3{fill:#0096eb;}.cls-4{fill:#00a5eb;}</style></defs><g id="_飾り文字_キャッチ01"><g><path class="cls-1" d="M0,104.31152c3.10059-1.31201,7.27344-3.11768,11.30713-5.20264,22.63721-11.80225,22.89746-36.21338,22.89746-37.24658,0-3.13086-1.37451-3.75977-3.5918-3.75977h-5.29199c-1.90137,0-3.03076,.79248-3.35547,2.35596-.72168,3.30713-2.94922,4.48389-4.63672,4.48389-.41162,0-1.26807,0-1.26807-2.12012,0-.90381,.11621-5.07031,.25098-9.89453,.18604-6.66211,.39697-14.21289,.39697-16.50439,0-6.08789-.21582-19.93213-.54102-26.92529,.00098-.7417-.14062-3.18066-.26514-5.33301-.06641-1.14551-.13477-2.32324-.15771-2.87109,.91943,.36182,2.47217,1.06543,3.5083,1.53467,1.52148,.68945,2.49756,1.12793,3.02588,1.29688,1.0708,.44287,2.79932,1.01904,5.52588,1.01904h37.36865c1.33105,0,2.29297,0,3.91211-.82959,.4707-.29395,.94043-.83398,1.80664-1.84619,.65674-.76758,1.84961-2.16211,2.35938-2.46875,1.1792,.29541,4.74609,4.27783,4.74609,5.70459,0,.13672-.13428,.46094-.21533,.57959-.04297,.04785-.0415,.05078-.07471,.10645-.10889,.18164-1.29688,2.22168-1.40381,2.40039-.71484,1.38428-1.00635,5.57617-1.00635,14.07275,0,8.57861,0,12.12939,.32422,28.69873,0,.39209,.05029,1.62842,.10352,2.90576,.05273,1.27441,.1123,2.71875,.1123,3.19434,0,2.68457-2.41797,6.79932-4.5083,6.79932-1.35645,0-1.66162-.5415-1.91992-3.40918-.31201-2.9502-2.77783-2.9502-3.58789-2.9502h-5.83203c-3.91602,0-3.91602,2.05811-3.91602,10.71973v20.51904c0,3.69385,1.02002,6.51953,13.85205,6.51953,12.81934,0,14.2998-3.51514,16.1958-10.82861,.1665-.646,.4165-2.21973,.70605-4.04248,.11719-.73877,.26025-1.64062,.41016-2.54053,.36475,3.57422,1.11523,8.76758,2.40967,11.55322,.11621,.21973,.32764,.54932,.59424,.96143,.43945,.6792,1.60791,2.4834,1.69141,2.9834-.00293,.72021-.92871,2.26123-2.64404,3.60693-3.53564,2.80566-9.24951,4.22656-16.9873,4.22656-20.84375,0-20.95557-3.29492-21.14062-8.75342-.10791-2.15088-.10791-4.53906-.10791-23.12549,0-7.94141-.37988-9.66943-.79053-10.354-.97412-1.44531-2.40576-1.44531-3.01709-1.44531h-5.72412c-1.96826,0-3.05225,0-3.05225,1.35986,0,.95264,.95117,1.54932,2.01074,2.12646l.12402,.06787c.81934,.45508,1.54199,.85645,1.81396,1.07227-.14258,.10645-.37305,.26221-.6123,.42432l-.41699,.2832c-1.51416,.98096-1.87646,1.70117-2.25049,3.50195-.87354,4.36719-2.74023,10.93115-6.68066,17.44531C22.58203,100.8418,5.2793,103.79199,0,104.31152ZM26.18457,40.58301c-4.34814,0-4.34814,2.18994-4.34814,7.47998,0,6.75928,0,8.79932,4.24023,8.79932h39.52881c4.02393,0,4.02393-1.82764,4.02393-9.51953,0-4.0708,0-6.75977-4.13232-6.75977H26.18457Zm.21582-17.2793c-4.45605,0-4.45605,2.06641-4.45605,8.19971,0,5.62988,0,7.95996,4.24023,7.95996h39.52881c4.13184,0,4.13184-1.80469,4.13184-9.3999,0-4.21533,0-6.75977-4.23975-6.75977H26.40039Zm.21631-16.91895c-1.01611,0-3.13037,0-4.04395,2.02881-.14453,.3208-.41211,.9165-.41211,9.53076,0,4.23975,3.19824,4.23975,4.56396,4.23975h38.98877c.79736,0,2.91455,0,3.82812-2.02979,.13379-.29736,.41162-.91602,.41162-8.68994,0-1.64893,0-5.07959-3.80811-5.07959H26.6167Z"/><path class="cls-2" d="M42.16895,233.90137c-1.52002,0-1.58887-.23633-1.59229-.51953,.4209-.14111,1.51855-.30469,2.86328-.50488l.71338-.10693c26.84717-4.22656,34.0083-25.23828,34.0083-36.9873,0-8.73633-5.73877-21.03906-18.49658-21.03906-10.4375,0-25.75928,8.90234-35.70898,16.52539-5.30615,4.12744-6.75635,4.71338-9.32764,4.71338-5.95459,0-11.52832-6.4082-11.52832-9.31934,0-.91992,.3584-.91992,.62012-.91992,.42676,0,2.02588,.41406,3.19385,.71631,1.73193,.44873,2.82275,.72363,3.39453,.72363,2.73877,0,4.17383-.64893,15.34375-5.69824l2.45605-1.11035,.66504-.29297c5.34082-2.35693,19.52783-8.61768,29.16357-8.61768,14.88232,0,26.54053,12.57959,26.54053,28.63867,.04102,8.28955-2.99121,15.7373-8.76904,21.54395-7.75,7.78809-19.97461,12.25488-33.53955,12.25488Z"/><path class="cls-4" d="M52.20068,396.32471c.55469-.7085,1.19336-1.51074,1.74023-2.19873,1.32959-1.67041,2.58545-3.24854,2.99707-3.87744,9.33838-13.47559,10.31543-25.17871,10.31543-48.66553,0-3.49268,0-5.7998-2.94434-5.7998-.60156,0-2.19238,.1001-3.73096,.19727-1.27246,.08008-2.58838,.16309-2.96484,.16309-8.83936,0-13.30273-4.18164-14.17578-6.51367,.05273,.01953,.10303,.03809,.15039,.05566,.44336,.16504,.90137,.33594,1.34033,.40576,2.58252,.479,5.46338,.73193,6.96094,.73193,4.58496,0,10.60205-.40869,13.23145-2.35547,.99121-.87646,1.37646-1.86182,1.37646-5.84375,0-4.1333-.96143-12.28613-1.90771-14.65088-.01953-.04932-.04297-.09668-.07031-.14209-.06836-.11426-.23193-.34814-.43408-.63184-.19092-.26904-.56982-.80176-.79736-1.16602,.30566-.18164,.90918-.40869,1.66943-.40869,3.04004,0,8.39648,3.20215,8.39648,4.64014-.01123,.39453-.58789,1.93555-.93262,2.85596-.46387,1.23828-.729,1.96143-.78711,2.41602-.33252,1.96338-.33252,4.61377-.33252,6.36768,0,1.49561,0,3.99902,2.08008,3.99902,1.48047,0,3.14795-1.54248,3.66553-2.40576l.18652-.28955c.30615-.479,.5957-.93164,.7085-1.01367,.00049,0,.00146,.00049,.00293,.00049,.02051,0,.12842-.01123,.40479-.01123,.68896,0,4.83203,.81836,4.83203,2.83984,0,2.28711-1.89258,4.45312-5.62549,6.4375-3.52393,1.89404-4.25635,2.2876-4.73096,3.16797-.2085,.45703-.44385,1.26318-.44385,3.71387,0,25.11328-.90479,34.47705-6.55908,44.1333-4.37695,7.61572-10.56836,12.14453-13.62158,13.84863Zm-27.09619-4.50342c-1.93848,0-4.86279-2.20459-7.78467-12.70752-2.87939-9.84375-2.87939-16.88477-2.87939-19.89111,0-4.61035,.19824-9.52441,2.68994-26.97803,1.21826-8.61182,1.30615-10.69434,1.30615-13.10059,0-3.12256-.37744-5.96436-1.12207-8.44678l-.31836-1.04834c-.19043-.62158-.26318-.86377-.28223-.99658,2.35205,.44141,8.03857,7.43994,8.03857,14.21191,0,1.32422-1.89746,6.7085-2.9165,9.60107-.43506,1.23389-.77832,2.2085-.9292,2.71143-2.29346,8.1543-3.60645,16.4751-3.60645,22.8457,0,.13232,.1499,13.23926,3.48438,13.23926,1.66553,0,2.82031-2.61182,6.20996-12.25732,.71582-2.03613,1.57812-4.48926,2.32812-6.37988-.53076,2.80127-1.34131,6.78809-1.73242,8.71289l-.33398,1.64941c-.62451,3.29199-2.07178,11.4126-2.07178,15.91455,0,1.1543,0,2.73535,1.38379,5.81055,.37891,.83984,1.2085,3.10938,1.2085,4.38965,0,1.31836-.93652,2.71973-2.67236,2.71973Z"/><path class="cls-3" d="M72.08545,542.42041c-14.17725,0-31.07666-3.30322-31.07666-19.03857,0-1.35254,.1543-2.43896,.33887-3.19531,.08398,.30469,.17969,.67285,.28906,1.11719,.05322,.21582,.09326,.375,.11426,.44482,2.62939,12.11572,17.02979,13.43164,23.09814,13.43164,.97363,0,3.47559-.21045,6.12402-.43311,2.37939-.19971,4.83936-.40674,5.64844-.40674,3.20312,0,7.64014,1.73779,7.64014,5,0,2.36035-2.84473,3.08008-12.17627,3.08008Zm-61.34521-3.11914c-1.89404,0-1.91602-4.23633-1.91602-4.2793,0-1.20264,.52441-2.37988,3.78955-9.1665,11.24756-23.66016,14.35498-44.44775,14.35498-44.5918,0-2.2002-1.43115-2.2002-4.88818-2.2002-1.66748,0-5.57275,0-9.11572-2.02783-2.42969-1.3501-4.05127-3.37744-4.73877-4.62939l.1543,.07715c.54492,.27441,.86523,.43262,1.12061,.50342,1.68359,.62842,6.20752,1.35693,9.87939,1.35693,.28418,0,6.979-.01562,8.36523-1.36279,1.35645-1.31885,1.49121-10.46631,1.49121-10.55713,0-3.46289-.48975-6.19971-1.4165-7.91504-.02051-.0376-.04346-.07373-.06836-.10889-.09766-.13574-.2998-.38867-.55811-.71045-.53027-.66016-2.14307-2.66895-2.28564-3.23389,.0083-.33496,1.41992-1.67139,3.86865-1.67139,4.36572,0,7.58105,4.44238,7.64014,5.36621-.02734,.17139-.32617,.92627-.52393,1.42578-.42432,1.07129-.66455,1.7002-.66455,2.16797,0,3.54492,10.14551,5.32031,10.72021,5.32031,.23389,0,.75977-.04297,1.59814-.11377,.67139-.05615,1.50684-.12646,1.75-.12646,1.24072,0,2.56396,.20996,2.56396,2.71973,0,5.9165-8.33594,9.20166-15.59814,11.40234-3.69287,1.08643-4.67725,1.37598-5.22656,4.12109-5.3125,25.22998-5.57764,26.14062-7.64111,33.23145l-.22266,.76367c-7.23682,24.23877-10.87744,24.23877-12.43213,24.23877Zm25.48828-78.35693c-1.55469,0-1.97021,1.14355-2.17188,2.26172-.18896,1.05078-.2959,1.71338-.40088,2.36426-.13477,.83545-.2666,1.65186-.56982,3.26904-.00342,.01855-.01416,.09668-.0166,.11572-.09912,.77002-.20166,1.56641,.30957,2.14795,.27295,.31006,.67139,.48096,1.12207,.48096,.49512,0,9.74805-3.20947,9.74805-5.7998,0-2.21191-6.88623-4.83984-8.02051-4.83984Zm28.30029,31.92383c.29492-.30176,.604-.61084,.87891-.88525,2.48486-2.48291,3.57373-3.68018,3.57373-4.72021,0-.72217,0-2.91992-10.28809-2.91992-1.69434,0-4.97607,.06396-7.91992,.49072-.51758,.0957-1.74805,.2749-2.59375,.38184,2.40283-1.62256,9.4541-4.51221,18.39746-4.51221,9.87158,0,17.03613,3.21289,17.03613,7.63965,0,1.58008-.74902,1.87988-2.13184,1.87988-.46533,0-1.86963-.09863-3.1084-.18506-1.3335-.09375-2.48535-.17432-2.93945-.17432-2.02393,0-3.77197,0-8.39014,2.00244l-.95947,.38477c-.60986,.24512-1.12451,.45215-1.55518,.61768Z"/><path class="cls-3" d="M81.37354,597.98291c-5.27441,0-10.88037-4.35986-10.88037-12.43945,0-8.41455,6.42578-12.19922,10.98828-12.19922,6.57275,0,10.98828,6.43213,10.98828,12.43945,0,5.8667-4.24219,12.19922-11.09619,12.19922Zm-.10791-23.27734c-6.16943,0-9.85645,5.57227-9.85645,10.95898,0,6.04297,4.51855,10.95898,10.07227,10.95898,5.49414,0,9.96436-4.80859,9.96436-10.71875,0-5.50488-3.80811-11.19922-10.18018-11.19922Z"/></g></g></svg>