<?xml version="1.0" encoding="UTF-8"?><svg id="_レイヤー_2" xmlns="http://www.w3.org/2000/svg" viewBox="0 0 97.31592 549.15625"><defs><style>.cls-1{fill:#00c3eb;}.cls-2{fill:#00b4eb;}.cls-3{fill:#0096eb;}.cls-4{fill:#00a5eb;}</style></defs><g id="_飾り文字_キャッチ01"><g><path class="cls-3" d="M12.0791,106.19092c-2.61719,0-2.85645-3.30078-3.14795-10.76709l-.01367-.34668c-.22363-8.34277-2.32275-11.48438-6.94385-15.36621-.16846-.14062-.40869-.29199-.85449-.5708-.26416-.16504-.72607-.45361-1.11914-.72656,.58203-.13623,1.31787-.25342,1.72021-.31689,.68994-.10938,1.06787-.17236,1.33301-.27051,3.94434-1.11377,4.78662-3.47607,9.37158-16.33301l2.47021-6.94482c1.4375-4.03711,2.98096-8.37256,4.25342-11.97803-.2876,1.4624-.56885,2.88477-.79395,4.02393-.33691,1.70312-.60986,3.08301-.72607,3.69727l-.36816,1.71094c-4.28369,19.91748-4.83398,22.47656-4.83398,26.43408,0,4.22559,.50537,5.73486,3.31104,14.11084l.84473,2.5249c.45703,1.27148,.70459,2.89844,.70459,4.60352,0,3.68262-1.65186,6.09277-4.41895,6.44775-.30029,.0459-.55664,.06738-.78857,.06738Zm67.98486-1.39551c-14.1543,0-15.63281-3.49805-15.63281-11.47949,0-2.88867,.17188-10.93896,.33789-18.72412,.15967-7.49512,.31055-14.57471,.31055-17.03418,0-3.19971,0-8.55566-.21826-11.59131,.00244-.23389-.08496-.78174-.22705-1.6499-.05615-.3418-.13232-.80664-.17334-1.11475,.04492-.00195,.09766-.00342,.15869-.00342,.45166,0,2.23047,.47266,3.08545,.69971,.3501,.09277,.65918,.1748,.88623,.23096,2.11865,.6748,4.57666,1.45508,4.73926,2.51709-.17432,.30371-.7583,.95801-1.08447,1.32324-.54688,.6123-.83887,.94678-.979,1.2583-.93652,1.68555-.94775,2.5332-1.05518,10.64062l-.00439,.31592c-.11279,3.11621-.43164,16.60693-.43164,19.33252,0,16.50732,.53564,18.87939,8.66797,18.87939,6.39551,0,9.18311-1.83252,12.08643-12.12842,.10693-.31201,.24756-1.00195,.48535-2.18945,.04688-.23291,.10107-.50342,.15967-.79199,.3291,3.34326,1.13281,9.08887,1.83301,10.38525,.2876,.48633,1.72705,3.46436,1.82812,4.03955-.00488,1.25391-1.63965,3.22852-3.17822,4.41211-2.4375,1.84668-6.01514,2.67236-11.59424,2.67236Zm-50.18799-4.24902c.58008-.61963,1.08203-1.14062,1.29443-1.3374,.01855-.01709,.09131-.09424,.1084-.11279,8.00586-8.64697,17.96924-19.40869,23.4126-46.25977,1.72852-8.64453,2.2876-16.15479,2.2876-18.43799,0-1.93408-.73584-4.23975-4.24023-4.23975h-13.17578c-1.94092,0-3.56543,1.73047-3.69824,3.93945-.05713,1.16699-.70312,11.2998-6.02148,11.2998-2.17969,0-3.32031-2.03223-3.32031-4.03955,0-1.93262,.27295-2.6626,3.24414-8.67725,.83594-1.72461,2.60645-6.84326,3.06445-12.23779,.72021,1.20557,1.67529,3.55957,2.31299,5.82666,.40332,1.34668,1.6875,2.76855,4.09424,2.76855h13.7168c2.81299,0,4.23926-1.50732,4.23926-4.47998,0-4.48633-.2207-16.66895-.76758-20.19238-.05371-.35791-.23828-.94971-.53516-1.88525-.23389-.73828-.62598-1.97363-.64062-2.28809,.00049,.00049,.00146,.00098,.00293,.00098,.03467,0,.29883-.19385,1.04883-.19385,.84277,0,6.74219,1.45459,8.1333,1.87695,.72559,.18018,1.6665,.84961,1.6665,1.5625-.08252,.32275-1.00391,1.67627-1.39697,2.25439-.2959,.43506-.53906,.79785-.64307,.99072-.30615,.67383-.55176,1.39307-.55176,3.47461,0,1.43066-.30713,6.67822-.53125,10.50928-.14746,2.5249-.22461,3.85498-.22461,4.13037,0,2.05518,1.59961,4.23975,4.56445,4.23975h14.9043c2.00488,0,3.28271-.66797,4.021-2.10254l.29688-.50293c.52539-.89648,.93359-1.59326,1.15479-1.91211,.76709,.24658,2.89697,1.53613,5.35986,3.61377,3.125,2.63574,4.25928,4.40039,4.25928,4.94385,0,1.78174-.90137,2.11963-2.56445,2.11963-6.37109,0-7.18994,0-10.01953,1.70312-.38916,.24707-1.10449,.81836-2.23242,1.72803,1.46875-3.91406,1.91211-5.27246,1.91211-5.79102,0-.80566-.28711-2.67969-2.94434-2.67969h-14.6875c-4.65576,0-4.79004,4.16602-4.88818,7.20752-.11963,2.26855-1.98242,16.90869-5.67432,28.15869-6.49707,19.37158-20.02783,30.80371-26.34131,35.02148ZM11.80615,44.31787c-.96436,0-1.42676-.63428-3.5332-4.84717-1.2334-2.36768-5.09912-7.64551-6.78857-9.27246l-.07129-.07764c-.37402-.39697-.65869-.70703-.87549-.94824,1.60059,.10059,4.45605,.74121,5.91602,1.34912,5.40283,2.13037,8.13281,5.2085,8.13281,9.15674,0,3.30469-1.96191,4.63965-2.78027,4.63965Zm8.20898-26.03857c-1.10254,0-1.79248-.19678-3.15723-4.23975-1.1167-3.22656-4.19482-7.64697-5.6665-9.53467-.21338-.30713-.45752-.63135-.67725-.92334-.07959-.10547-.16455-.21875-.24707-.32959,2.74365,.19727,12.74316,2.86279,12.74316,9.54736,0,1.85986-1.05713,5.47998-2.99512,5.47998Z"/><path class="cls-4" d="M40.49316,247.62256c10.15869-7.77148,15.71436-12.75586,22.07568-23.72217,2.13574-3.63867,3.37402-6.00879,3.37402-7.3418,0-1.71777-.50098-2.54688-6.46045-5.79736-8.60254-4.56494-15.81445-5.52197-20.35107-5.52197-6.95947,0-7.62939,.61084-9.66943,5.40869l-.1709,.40381c-9.20898,21.77295-10.90576,25.38623-16.83643,25.38623-5.08789,0-6.12793-6.7832-6.12793-8.59961,0-10.27441,10.2041-18.86865,20.31689-22.82812,1.46338-.5415,1.98926-.81055,3.19287-2.81592,1.35693-2.42529,5.92041-10.15674,9.94629-16.97852,3.93848-6.67285,6.36523-10.78857,6.61523-11.28809,.52832-1.17236,1.64746-4.67578,1.50244-5.95898-.26318-1.48145-1.11572-2.32812-2.28955-2.32812-.56836,0-1.89941,0-8.36475,6.28271-4.61182,4.72852-6.86426,5.23682-7.61963,5.23682-2.90527,0-5.68359-6.68359-6.01758-7.97021,.00146-.03809,.00391-.07129,.00684-.09961,.38037,.03174,1.12012,.14746,1.68311,.23486,.93555,.146,1.52539,.23535,1.84424,.23535,3.83203,0,5.38086-.45947,11.80713-4.98193,4.81738-3.38574,7.896-3.77734,9.79248-3.77734,7.41602,0,7.74902,6.1377,7.74902,6.19971,0,2.03857-.61914,3.19092-6.30469,9.02148-7.38672,7.6377-16.16016,23.87646-16.16016,25.05713,0,.99658,.875,1.71973,2.08008,1.71973,.36816,0,1.05273-.0083,1.88721-.01807,1.29053-.01562,2.94336-.03516,4.3291-.03516,1.57861,0,2.19775,.02686,2.43994,.04883,7.42041,.63428,15.27051,2.86328,20.14502,4.73779,1.22363,.49414,1.57666,.54639,2.0874,.54639,2.92041,0,3.05176-11.91895,3.05176-12.03955,0-.57227-.1709-2.18848-.41211-4.40869-.08203-.75537-.17236-1.58691-.21338-2.02881,.0625-.00195,.12305-.00195,.16553-.00195,.96143,.12549,8.71973,2.0415,8.71973,5.59961-.06934,.42676-1.11084,2.20068-1.55566,2.9585-.38965,.66357-.61572,1.05176-.73193,1.31055-.05811,.12891-.08838,.26904-.08838,.41064-.02002,.16406-.34473,2.28662-.63037,4.15918-.77148,5.04883-.88135,5.82471-.88135,6.04053,0,2.11084,1.09277,2.75342,2.90332,3.81836l.51953,.30957c4.25244,2.53613,13.10156,7.81299,13.10156,13.27148,0,2.68311-2.22803,3.55957-2.99609,3.55957-1.74023,0-2.79053-.81055-10.21875-7.88379-.04053-.03857-.08398-.07373-.13037-.10498-.07178-.05664-.20654-.17676-.3877-.33545-2.13623-1.87158-3.57373-2.95508-4.59912-2.95508-1.37549,0-1.9707,1.15137-2.29053,1.77002l-.10205,.19482c-3.60059,7.17285-8.6001,14.75732-20.78857,21.80811-3.71436,2.13721-6.9126,3.42529-8.9375,4.09082Zm-15.72607-39.3833c-4.08936,0-16.33691,8.44238-16.33691,16.23926,0,2.76318,1.45947,4.47998,3.80859,4.47998,2.875,0,6.09814-3.15967,9.58008-9.39209,2.21582-3.96484,4.37988-9.03369,4.37988-9.72754,0-1.10498-.71924-1.59961-1.43164-1.59961Z"/><path class="cls-2" d="M38.12939,399.34424c.42578-.36475,.96533-.79492,1.59668-1.2627,6.96436-5.27588,12.60938-12.89893,12.60938-15.08301,0-1.06396-1.1333-2.10938-3.84424-4.19971-.50439-.38867-1.13184-.87305-1.27295-1.0293-10.97559-10.85596-10.97559-24.72656-10.97559-30.64941,0-.82031,.16797-3.2002,.33057-5.50195,.16357-2.3125,.31787-4.49707,.31787-5.29785,0-1.31592-.6626-2.2002-1.64844-2.2002-3.51123,0-13.74414,18.22852-13.74414,28.35938,0,.93701,.38379,3.26709,.79004,5.73438,.33838,2.05322,.72168,4.38135,.72168,5.06494,0,2.44678-1.66602,4.75977-3.42773,4.75977-3.83496,0-10.98828-9.05273-10.98828-26.35889,0-5.76025,.7002-11.73828,2.02441-17.2876l.86328-3.75732c1.18604-5.13965,1.43262-6.20947,1.43262-8.11377,0-2.22656-.39551-4.12842-2.36328-6.72363-.47656-.66211-.93994-1.30615-1.07373-1.58447,.25732-.33105,1.82568-1.01172,2.54541-1.01172,3.40186,0,7.85547,6.56104,7.85547,8.95996,0,1.40039-1.45898,4.28271-2.15967,5.66797-4.20166,8.5752-6.15576,16.56934-6.15576,25.17041,0,9.83545,3.51514,10.11963,3.91602,10.11963,1.74756,0,2.42578-1.44922,4.94824-6.84082l.49316-1.0542c6.24707-13.40283,9.51611-17.60352,15.74023-25.10498,1.26855-1.53857,1.38086-2.12549,1.9209-4.94531l.12744-.66357c.90625-4.55078,3.76367-15.14893,10.68213-15.14893,5.46387,0,8.83301,4.5752,10.64307,7.03271,1.46924,1.93066,2.40674,2.07959,6.91211,2.79492,13.87939,2.11426,22.16162,12.95898,22.16162,29.01074,0,20.92383-14.20703,33.02344-28.24121,34.16211-2.14209,.14844-2.49609,.56396-4.46045,2.86768-1.91992,2.22607-6.42578,7.44922-13.57129,11.66699-1.72705,.99805-3.50928,1.90088-4.70557,2.44775Zm27.78613-77.82324c-1.2832,0-2.08008,.79688-2.08008,2.07959,0,.40479,.07861,.67676,.33887,1.57812l.34619,1.21289c1.33887,4.46094,2.01514,10.33936,2.01514,17.48828,0,14.23047-2.91064,24.66309-4.16211,28.48779-.1582,.52441-.1582,.98486-.1582,1.39111,0,.73193,.27002,1.95996,2.08008,1.95996,4.7959,0,18.71191-7.33594,18.71191-29.79883,0-5.00391-.87988-17.15088-9.03174-21.86475-3.37988-2.00342-6.75098-2.53418-8.06006-2.53418Zm-9.93652,1.43994c-3.06006,0-11.4082,2.2749-15.86768,5.9917-1.99512,1.69385-2.4126,7.55127-2.4126,12.16748,0,25.25,12.98633,33.67041,16.47461,33.6709h.00049c.19287,0,.37402-.021,.53857-.0625,.82324-.2002,3.03418-.7373,4.90088-12.64941,.9585-6.11719,1.57764-13.96729,1.57764-19.99902,0-5.69922-.62842-11.03125-1.86768-15.84863-.69824-2.45996-1.27734-3.27051-3.34424-3.27051Zm-6.04785-12.23975c-7.83008,0-9.42383,12.39453-9.42383,12.51953,0,1.40869,1.0127,1.47998,1.21582,1.47998,.57471,0,2.29785-.9292,2.76221-1.21191l-.00928,.00635c1.44141-.80029,3.78564-1.74854,7.83789-3.1709,3.06982-1.04883,3.80078-1.29883,3.80078-2.62305,0-.81152-1.98193-7-6.18359-7Z"/><path class="cls-1" d="M56.84326,549.15625c-2.45264,0-2.99512-1.42725-5.15283-8.16895l-.15869-.49609c-2.20654-6.95898-8.22412-17.18262-17.8833-30.38428l-.19043-.25977c-3.23047-4.3999-4.01904-6.02637-4.01904-8.28906,0-2.96191,1.36426-6.46143,8.55957-16.45508,11.1626-15.53369,14.87695-21.48926,14.87695-26.14307,0-2.90771-1.18701-4.9458-2.86328-7.50732-.01758-.0332-.03418-.06494-.04932-.09473,2.75439,.50635,11.92822,6.02734,11.92822,9.52197-.23926,1.36426-6.6167,9.11279-11.74121,15.33936-10.3916,12.62549-17.20312,21.12695-17.20312,24.13867,0,2.30762,.97656,4.34131,3.48242,7.25244l.47998,.58154c9.38916,11.3667,23.57861,28.54443,23.57861,36.32422,0,3.4248-1.96338,4.64014-3.64453,4.64014Z"/></g></g></svg>