<?xml version="1.0" encoding="UTF-8"?><svg id="_レイヤー_2" xmlns="http://www.w3.org/2000/svg" viewBox="0 0 173.10254 463.15723"><defs><style>.cls-1{fill:#00a8e9;}.cls-2{fill:#00b2e9;}</style></defs><g id="_飾り文字_キャッチ01"><g><path class="cls-1" d="M50.59375,187.93652c-2.19922-.00049-2.55078-.83203-2.55078-3.5,0-2.88037,.0918-11.05811,.18945-19.7168,.10156-8.96973,.20605-18.24463,.20605-21.64258,0-.16846-.12109-17.33984-.65723-19.41943l-.04102-.14062c-.92969-2.75439-3.59961-3.78076-5.06348-3.78076-1.95703,0-2.57812,.7373-4.88965,3.47998l-1.1875,1.40527c-11.24316,12.7666-24.83984,23.35254-33.65039,29.37549,43.88281-44.00537,48.26172-67.05029,48.26172-67.24023,0-2.06152-.7998-5.52051-6.1582-5.52051-9.73438,0-15.56152,.24023-18.69336,.36914-1.01758,.04199-1.70312,.07129-2.09668,.07129-.50977,0-1.5752,.12695-3.92773,.43018-.67773,.0874-1.28613,.16748-1.6416,.20703-.06543-.08398-.16016-.21436-.2959-.41602l-.08301-.11377-2.83496-3.62354c1.62402,.14111,3.45508,.32959,4.0625,.44238l.13379,.0249,.13672,.00635c8.75586,.41357,18.67969,.88232,28.4082,.88232,3.2334,0,7.30664-2.51953,8.83691-7.33496,.70898-1.96777,4.64746-16.83203,4.64746-19.08594,0-6.83984-5.70215-6.83984-8.1377-6.83984H31.98535c-4.93652,0-18.01953,0-25.06348,.66211-.38867,.0127-1.01074,.08545-2.20898,.2334-.49316,.06104-1.17969,.146-1.57812,.18457-.04102-.04883-.35449-.41748-.48633-.56592l-2.64844-3.56152c.34766,.03027,.69629,.06152,1.02734,.09082,2.4248,.21533,4.07031,.35693,4.82227,.35693,1.30957,.05176,2.96191,.13037,4.82715,.21924,5.84473,.27881,13.84961,.66064,22.29883,.66064h23.56152c2.39648,0,6.01758,0,7.64746-5.13525,1.30664-4.35352,2.27246-19.2666,2.27246-21.50439,0-7.7207-5.8418-7.7207-8.33594-7.7207h-10.09863c-5,0-18.28027,0-25.07812,.44482l-.20508,.01318-.19922,.05518c-.57422,.15967-2.44434,.45898-3.38086,.55615-.06738-.10693-.15332-.25537-.26367-.45898l-.08008-.14893-2.85742-3.65088c.38477,.04541,.77148,.0918,1.13672,.13574,2.35352,.28271,3.83691,.4541,4.59473,.4541l1.4502,.05762c5.79297,.22559,15.48926,.60254,25.87305,.60254H114.35254c1.71094,0,4.89648,0,8.03125-2.68018l.09961-.08496,.08691-.09717c.26758-.29688,.61133-.76758,1.24707-1.64307,.60352-.83203,2.01367-2.77539,2.90625-3.73096,1.78027,1.20557,5.6543,4.17139,6.54395,4.91211l.0791,.0625c5.8457,4.39355,6.72559,5.16309,6.72559,5.88086,0,.83789-.11816,1.42822-2.4541,2.94189l-.38867,.27686c-3.20508,2.30273-4.28516,3.07861-4.28516,6.02148,0,16.5332,.32129,17.78369,.45801,18.31787l.03711,.12451c1.11328,3.40234,4.09375,5.77832,7.24707,5.77832,1.20703,0,4.19043-.0835,5.80957-.85449,1.08691-.53662,2.31641-1.97705,4.77539-4.92578,1.45312-1.74219,4.04102-4.84424,5.25879-5.73096,3.18359,1.62256,15.11523,9.98926,16.57227,12.53027-.42383,.92041-4.60547,.92041-8.65625,.92041h-22.77051c-2.49414,0-8.33594,0-8.33594,7.7207,0,.58057,.12207,4.2041,.32227,10.06885,.20898,6.15088,.46973,13.80518,.46973,15.01123,0,6.24951-.60449,11.85938-7.89941,11.85938-1.90234,0-1.96191-.5332-2.15918-2.30029l-.00391-.03125c-.31348-7.34766-5.79004-7.34814-8.13281-7.34814h-43.16406c-3.45312,0-7.36719,0-10.13281,2.79297-.67285,.74414-1.88867,2.94434-5.47852,9.66406-1.05273,1.96826-2.10059,3.93115-2.97266,5.52246-2.70898,5.01709-4.00781,7.50439-4.00781,9.32031,0,6.65723,10.36914,10.14062,20.6123,10.14062h56.8252c6.15625,0,9.06445-2.55078,9.69531-3.18945,.31641-.28223,.71973-.72119,1.40527-1.47607,.57715-.63428,1.7793-1.95703,2.51562-2.60547,2.58105,1.36328,9.57324,6.5918,11.10938,8.69189-.49316,.58643-1.41602,1.48584-1.96777,2.0249-1.10645,1.07959-1.80176,1.77002-2.20215,2.38867-.6416,.77441-1.37012,2.51855-1.37012,16.80518,0,2.70215,.23047,10.41406,.47461,18.5791,.25391,8.46777,.51562,17.22412,.51562,20.36133,0,2.43457-5.35059,5.91992-9.08789,5.91992q-2.75195,0-2.75195-7.67969c0-5.41455-2.73828-8.16016-8.1377-8.16016h-59.39941c-8.53418,0-8.53418,4.52979-8.53418,10.7998,0,5.64404-9.19238,6.79785-9.28906,6.7998Zm16.43652-67.54004c-2.49414,0-8.33594,0-8.33594,8.60059,0,.5293-.00488,1.64258-.01172,3.15186-.06055,13.22949-.08105,27.09717,.22461,29.64551,.53223,6.82275,6.19141,6.82275,8.32129,6.82275h60.78613c2.49414,0,8.33594,0,8.33594-8.60059,0-2.4624,.10352-9.46143,.20508-16.22998,.09766-6.60693,.19043-12.84766,.19043-15.01025,0-8.37988-6.27441-8.37988-8.33594-8.37988h-61.37988Zm17.42383-74.14062c-6.31543,0-9.34277,.90234-11.7373,6.49268l-.04492,.104s-.24316,.7876-.52051,1.67285c-5.53711,17.73389-5.53711,18.09326-5.53711,18.59082,0,2.91992,1.20605,6.40039,6.9502,6.40039h42.37207c4.50391,0,7.16211-1.87305,7.90039-5.56787l.03906-.19385v-18.89844c0-2.35205,0-8.60059-7.93945-8.60059h-31.48242Zm4.9502-36.08008c-3.81543,0-9.58203,0-11.07324,8.01416-.29004,1.44629-2.80664,17.85938-2.80664,19.28662,0,3.4126,2.29395,7.05957,8.73242,7.05957h31.48145c8.1377,0,8.1377-2.18799,8.1377-23.12012,0-6.03125,0-11.24023-8.5332-11.24023h-25.93848Z"/><path class="cls-2" d="M83.86035,463.15723c-23.13965,0-36.41113-9.77539-36.41113-26.82031,0-13.46973,7.45703-20.16846,25.47266-36.35303,2.37402-2.11035,3.63281-5.29004,3.63281-9.18701,0-20.01855-6.25586-24.2207-11.50391-24.2207-9.0127,0-21.01855,11.2627-26.2168,24.59375-2.3418,5.91162-4.10645,9.50684-8.8291,9.50684-3.92285,0-5.52344-1.52393-5.52344-5.26074,0-5.80176,5.24023-12.56543,17.90039-28.90674l.68848-.88818c5.38574-6.91455,9.81445-15.42188,11.97461-19.87744,2.43359-5.01709,5.27441-11.72754,5.27441-14.12744,0-2.11719-1.67969-3.54004-4.17871-3.54004-1.11035,0-3.21777,.35693-6.55762,.94482-2.0625,.36328-4.62891,.81494-5.32227,.81494-6.29395,0-14.86621-9.2334-15.57422-16.42871,1.24805,.67139,3.08496,1.83447,4.01562,2.42334,.74316,.47021,1.35059,.85254,1.67676,1.03369,2.83203,1.57324,8.42188,4.21191,14.04004,4.21191,16.82715,0,18.23633-6.36963,18.23633-12.33984,0-1.14697-.12891-5.15527-1.78418-8.57227-.34961-.65088-.9502-1.3418-1.98438-2.51367-.62109-.70459-1.7832-2.021-2.33301-2.82568,1.04688-.69922,3.86621-1.68896,6.47656-1.68896,3.55078,0,7.80371,1.30518,8.10547,4.9834,.11328,1.64307,.55273,2.76807,1.35156,3.56006-.11621-.00244-.23242-.00342-.34863-.00342-4.59668,0-5.56348,7.55322-5.56348,9.04004,0,.87549,0,3.54004,2.39551,3.54004,.11914,0,11.89941-2.60938,11.89941-7.28027,0-1.40527-.60742-2.48486-1.57227-3.2915,.79492,.07666,1.65234,.14795,2.57422,.2251l.08301,.00684h.08301c1.17188,0,6.91016,1.01318,6.91016,3.71973,0,5.83008-14.25,12.02197-21.90527,15.34863l-.4541,.19727c-3.77051,1.67627-4.13477,2.61377-8.59082,14.09033-4.71289,12-5.50586,13.76221-10.60156,23.56104l-.35059,.69775c-.81348,1.61084-1.26074,2.49854-1.26074,3.74561,0,1.66895,1.17383,2.87988,2.79199,2.87988,1.49512,0,6.96973-2.6001,7.02344-2.62646,2.0459-1.0332,4.34082-1.55322,6.83594-1.55322,6.54492,0,11.86133,4.31738,14.9707,12.15723,1.62598,4.38916,2.01562,5.44238,3.83984,5.44238,1.18555,0,1.61523-.22656,5.57422-6.17139,1.68848-2.53418,3.65039-5.6123,4.25488-6.67236l.03125-.04883c6.57227-10.1792,18.80566-29.12695,34.88672-29.12695,9.50781,0,16.6123,9.28125,16.6123,17.58008,0,8.79443-14.27539,15.69238-25.74512,21.23486l-1.04395,.50488c-1.49805,.73242-4.67578,2.1875-8.35547,3.87256-11.03613,5.05469-20.36914,9.37207-22.78516,11.01221-3.95801,2.74902-4.24219,5.94971-4.24219,10.89502,0,1.02588,.09668,3.76855,.19922,6.67236,.09668,2.74023,.19727,5.57373,.19727,6.52783,0,9.19873-1.8418,14.06055-5.32617,14.06055-3.83984,0-4.13867-7.05762-4.13867-9.2207,0-1.61816,.35449-8.32227,.50586-11.18506,.05469-1.04834,.08887-1.73828,.08887-1.79443,0-4.0376-2.12109-4.64062-3.38574-4.64062-3.05176,0-21.20605,14.89307-21.20605,28.18066,0,11.39941,9.2666,17.17969,27.54199,17.17969,4.85156,0,8.75781-.40527,13.04883-1.35449,1.1709-.19385,3.64648-.8042,6.50488-1.50977,3.89844-.96143,9.78906-2.41504,11.13574-2.41504,2.97754,0,7.70117,1.48779,7.70117,5.47949,0,10.271-24.13965,12.52051-33.44141,12.52051Zm40.58984-119.24121c-18.15039,0-35.46191,35.5083-35.46191,39.62012,0,1.76758,1.2002,3.10059,2.79199,3.10059,2.08398,0,41.59961-18.32812,41.59961-34.12012,0-6.34814-4.81055-8.60059-8.92969-8.60059Z"/></g></g></svg>