<?xml version="1.0" encoding="UTF-8"?><svg id="_レイヤー_2" xmlns="http://www.w3.org/2000/svg" viewBox="0 0 349.70312 148.41406"><defs><style>.cls-1{fill:#00bee6;}</style></defs><g id="_レイアウト"><g><g><path class="cls-1" d="M76.66211,91.94043l.22266-1.09375,7.9082-.42285c4.08105-.17969,4.69141-1.6875,4.69141-2.57129l-1.82812-81.7041c-.00586-.27246-.22852-.48926-.5-.48926h-.42188c-.20703,0-.39258,.12695-.4668,.32031L53.49316,91.05273h-.99707L22.1084,9.24121c-.39648-.94043-.96777-1.71777-1.42578-2.34277-.23145-.31445-.4375-.59375-.57715-.83887-.09082-.1582-.25781-.25195-.43457-.25195-.04004,0-.08105,.00488-.12207,.01465-.21777,.05469-.37207,.24805-.37793,.47266l-2.1084,80.50879c0,2.12109,3.75684,3.46973,10.04883,3.62109l4.93848,.41016,.22461,1.10547H1.02148l.22363-1.09863,6.22754-.41797c3.55566-.23438,7.63672-.87207,7.63672-3.75488L17.64062,4.84277c.00488-.15527-.06348-.30371-.18359-.40234-1.46094-1.19629-4.72656-1.91211-7.29395-2.18164L3.63867,1.55762l-.22656-1.11426H26.49414l29.12207,78.1123c.07324,.19531,.25977,.3252,.46875,.3252h.28125c.20801,0,.39355-.12793,.46777-.32227L86.5166,.44336h21.85938l-.14844,1.09473-8.16211,.42188c-2.88867,.25391-4.41504,1.06348-4.68359,2.47754-.00684,.03418-.00977,.06934-.00879,.10352l1.6875,83.61719c0,1.44629,1.39551,1.98926,6.2207,2.41211l5.81738,.27832,.22168,1.0918h-32.6582Z"/><path class="cls-1" d="M150.31445,93.86426c-17.1875,0-30.14941-14.10059-30.14941-32.79883,0-18.80664,13.30469-33.53906,30.29004-33.53906,17.02832,0,29.86914,14.03711,29.86914,32.65137,0,18.88965-13.18164,33.68652-30.00977,33.68652Zm-.14062-65.11816c-12.6582,0-22.57324,13.48145-22.57324,30.69141,0,11.69434,3.17578,21.74512,8.71387,27.57617,3.54102,3.72656,8.5625,5.77832,14.14062,5.77832,12.42188,0,22.15234-13.74121,22.15234-31.28223,0-11.74902-2.72168-20.82324-7.87109-26.24414-3.96094-4.32324-8.8623-6.51953-14.5625-6.51953Z"/><path class="cls-1" d="M217.15137,93.12402l-20.26562-55.02246c-2.25195-5.77832-2.6543-6.81055-6.33008-7.13281l-3.56836-.40332-.21289-.9668h24.53027l-.1416,.96875-3.69336,.40234c-1.99512,.07324-3.17188,.50195-3.78125,1.38672-.68652,.99609-.6084,2.45801,.26855,5.04297l16.73535,45.29785c.07227,.19727,.25977,.32715,.46875,.32715h.00195c.20996-.00098,.39648-.13281,.46875-.33008l14.05957-38.92188c2.13281-6.1084,3.00879-9.17383,1.83301-10.90918-.87598-1.29297-2.75977-1.62793-5.51562-1.74902l-3.54297-.53516-.21582-.98047h21.81543l-.21582,.9834-2.47461,.39062c-4.9043,.31055-5.87988,2.40625-10.22949,13.48242l-17.87891,48.66895h-2.11523Z"/><path class="cls-1" d="M262.70312,91.94043l.22266-1.09668,4.53809-.27246c2.82031-.13477,4.6875-.22363,4.6875-2.27441V42.12207c0-6.51367-.7168-8.73926-4.95898-9.08203l-4.93262-.66602,.12207-.64453,16.3623-3.9209v60.78418c0,1.61523,1.28223,1.69922,5.52832,1.97852l4.11816,.27051,.22363,1.09863h-25.91113Zm11.33887-79.76953c-3.7832,0-5.5459-3.49902-5.5459-5.86328,0-2.54395,1.80762-6.30762,5.68652-6.30762,3.83496,0,5.26465,3.77832,5.26465,6.15918,0,2.4248-1.71777,6.01172-5.40527,6.01172Z"/><path class="cls-1" d="M326.03418,93.7168c-15.33008,0-27.33789-13.88672-27.33789-31.61523,0-19.71094,12.47852-34.5752,29.02539-34.5752,10.37109,0,20.87012,6.64062,20.87012,19.33203,0,1.23633-.10059,2.15918-.2168,3.22754l-.0127,.11719s-41.30762-.29297-41.30859-.29297c-.25195,0-.46484,.1875-.49609,.4375-.24707,1.9502-.70703,5.58008-.70703,8.20215,0,17.24414,9.94629,30.24707,23.13574,30.24707,8.55469,0,14.55176-3.57617,19.96973-11.93652l.74707,.5c-5.86523,10.85449-13.82617,16.35645-23.66895,16.35645Zm.5625-64.82227c-8.24805,0-16.67578,8.30371-19.60449,19.31445-.04004,.15137-.00684,.3125,.08789,.43555,.0957,.12207,.24121,.19336,.39551,.19336,.00195,0,33.04492-.2959,33.04492-.2959,.27148-.00293,.49121-.22168,.49512-.49316,.08789-6.54395-1.7002-12.00879-5.03516-15.3877-2.46582-2.49902-5.62305-3.7666-9.38379-3.7666Z"/></g><g><path class="cls-1" d="M3.04102,122.1084l-.51172,1.45703c-.64062,1.87305-.67188,2.17676,.56055,2.30469l.41602,.06445,.04785,.25586H0l.04883-.25586,.28711-.04785c.92871-.14453,1.08887-.35254,2.17773-3.3457l1.80859-5.04199-.14453-.52832c.43164-.14453,1.10449-.65625,1.28125-1.05664h.23926l2.80176,8.40332c.41602,1.24902,.62402,1.50488,1.24805,1.55273l.52832,.06445,.04785,.25586H5.60254l.04785-.25586,.52832-.06445c.75195-.04785,.76855-.44824,.39941-1.56836l-.6875-2.19336H3.04102Zm2.7373-.33594l-1.21582-3.88965h-.04883l-1.36035,3.88965h2.625Z"/><path class="cls-1" d="M13.66699,125.93457l.78418-.06445c.51172-.04785,.70508-.16016,.70508-.27148v-9.1084h-.43262c-1.56934,.06445-2.41699,1.07227-2.88184,2.11328l-.20703,.6084h-.36914l.44922-3.02539h8.80273l.25586,3.02539h-.33594l-.17578-.57617c-.51172-1.23242-1.29688-2.11328-2.83301-2.14551h-.46387v9.15625c0,.12793,.0957,.17578,.81641,.24023l.67188,.04785,.04785,.25586h-4.88184l.04785-.25586Z"/><path class="cls-1" d="M23.02344,125.93457l.7207-.06445c.38477-.03223,.70508-.16016,.70508-.27148v-8.86816c0-.12793-.09668-.17578-.81641-.24023l-.59277-.04785-.04785-.25586h4.51367c2.65723,0,3.98633,.89648,3.98633,2.56055,0,1.2168-.96094,2.19336-2.41797,2.5293l2.12891,3.29785c.65625,.99219,.94531,1.24805,1.63281,1.3125l.27246,.04785,.06348,.25586h-3.12109l-.28809-.52832-2.49707-4.29004c-.22363-.03125-.78418-.11133-1.02441-.20801v4.48242c0,.12793,.33691,.19141,.81641,.24023l.62402,.04785,.04883,.25586h-4.75391l.04688-.25586Zm6.54688-7.13867c0-1.47266-.87988-2.35352-2.59277-2.28906-.04785,0-.73633,.01562-.73633,.01562v4.33789c.27246,.08008,.81641,.16016,1.05664,.16016,1.40918-.03223,2.27246-.80078,2.27246-2.22461Z"/><path class="cls-1" d="M35.36914,125.93457l.68848-.06445c.49609-.04785,.68848-.16016,.68848-.27148v-8.86816c0-.12793-.0957-.17578-.81641-.24023l-.56055-.04785-.04785-.25586h4.6416l-.04785,.25586-.67285,.06445c-.51172,.04785-.6875,.16016-.6875,.27148v8.86816c0,.12793,.0957,.17578,.81641,.24023l.54395,.04785,.04785,.25586h-4.6416l.04785-.25586Z"/><path class="cls-1" d="M46.55273,125.93457l.48047-.04785c.84766-.04883,1.00781-.30469,1.05664-1.40918l.20801-7.3623c-.16016-.36816-.44824-.54492-.89648-.6084l-.57617-.06445-.04785-.25586h3.48926l2.72168,7.50684h.03125l2.80078-7.50684h3.50586l-.04785,.25586-.86426,.06445c-.44824,.04785-.64062,.19141-.64062,.31934l.16016,7.97168c.03223,.86426,.14453,1.00879,.78418,1.07227l.59277,.06445,.04785,.25586h-4.62598l.04785-.25586,.7998-.08008c.46484-.04785,.59277-.28809,.56055-1.08887l-.19141-7.7793h-.04883l-3.4248,9.1084h-.41699l-3.2168-8.72363c-.03125-.1123-.16016-.24023-.20801-.30469l-.16016,7.45898c-.04785,1.05664,.16016,1.3125,1.13672,1.36133l.46387,.04785,.04883,.25586h-3.61816l.04785-.25586Z"/><path class="cls-1" d="M64.13184,125.93457l.78418-.06445c.52832-.04785,.70508-.16016,.70508-.27148v-3.80957l-2.40234-4.16211c-.46289-.80078-.71973-1.05664-1.3125-1.12012l-.41602-.06445-.04688-.25586h4.59375l-.04883,.25586-.40039,.03223c-.84766,.08008-.84766,.40039-.32031,1.32812l1.90527,3.39355h.03223l1.39258-2.56055c.88086-1.63281,.89648-2.00098-.19238-2.14551l-.38379-.04785-.04883-.25586h3.49023l-.04883,.25586-.38281,.04785c-.68945,.1123-1.05664,.40039-2.00195,2.11328l-1.59961,2.91309v4.12988c0,.12793,.0957,.17578,.81641,.24023l.65625,.04785,.04688,.25586h-4.86523l.04785-.25586Z"/><path class="cls-1" d="M77.73047,125.93457l.59277-.06445c.5127-.04785,.7041-.16016,.7041-.27148v-8.86816c0-.12793-.0957-.17578-.81641-.24023l-.46484-.04785-.04688-.25586s4.28906-.03223,4.24121-.03223c3.79395-.04785,5.79395,1.96875,5.79395,4.84961,0,2.81738-2.16016,5.18652-6.08203,5.18652h-3.96973l.04785-.25586Zm8.05176-4.57812c0-2.76953-1.28027-4.86621-4.19434-4.86621h-.76758v9.0918l1.08789,.30469c2.56152-.04883,3.87402-2.11328,3.87402-4.53027Z"/><path class="cls-1" d="M89.42676,125.93457l.55957-.06445c.5127-.04785,.73633-.16016,.73633-.27148v-8.86816c0-.12793-.0957-.17578-.81641-.24023l-.46387-.04785-.04785-.25586h8.01953l.14453,3.16895h-.35352l-.15918-.55957c-.49707-1.61719-1.04004-2.30566-3.3291-2.30566l-1.20117,.0166v4.40137h.625c1.4082-.06348,1.9043-.25586,2.19238-1.13672l.17676-.49609,.30273,.0166-.36719,3.61719-.30469-.01562-.04785-.48047c-.08008-.92871-.47949-1.10449-2.06543-1.16895l-.51172-.03125v4.60938l1.4248,.04785c2.38477-.01562,3.05762-.95996,3.60156-2.36914l.17578-.52832,.36816,.0166-.44824,3.20117h-8.25879l.04785-.25586Z"/><path class="cls-1" d="M102.74023,122.1084l-.5127,1.45703c-.64062,1.87305-.67285,2.17676,.55957,2.30469l.41602,.06445,.04883,.25586h-3.55371l.04785-.25586,.28906-.04785c.92773-.14453,1.08789-.35254,2.17578-3.3457l1.80859-5.04199-.14355-.52832c.43262-.14453,1.10449-.65625,1.28027-1.05664h.24023l2.80078,8.40332c.41602,1.24902,.625,1.50488,1.24902,1.55273l.52832,.06445,.04785,.25586h-4.72168l.04785-.25586,.52832-.06445c.75195-.04785,.76758-.44824,.40039-1.56836l-.68848-2.19336h-2.84863Zm2.73633-.33594l-1.2168-3.88965h-.04785l-1.36035,3.88965h2.625Z"/><path class="cls-1" d="M111.49023,125.93457l.7207-.06445c.38379-.03223,.7041-.16016,.7041-.27148v-8.86816c0-.12793-.09668-.17578-.81641-.24023l-.59277-.04785-.04688-.25586h4.51367c2.65625,0,3.98535,.89648,3.98535,2.56055,0,1.2168-.95996,2.19336-2.41699,2.5293l2.12891,3.29785c.65625,.99219,.94434,1.24805,1.63281,1.3125l.27148,.04785,.06445,.25586h-3.12109l-.28906-.52832-2.49609-4.29004c-.22461-.03125-.78516-.11133-1.02539-.20801v4.48242c0,.12793,.33691,.19141,.81641,.24023l.625,.04785,.04785,.25586h-4.75391l.04785-.25586Zm6.54688-7.13867c0-1.47266-.88086-2.35352-2.59375-2.28906-.04688,0-.73633,.01562-.73633,.01562v4.33789c.27344,.08008,.81641,.16016,1.05664,.16016,1.40918-.03223,2.27344-.80078,2.27344-2.22461Z"/><path class="cls-1" d="M127.65039,125.93457l.48047-.04785c.84766-.04883,1.00781-.30469,1.05664-1.40918l.20703-7.3623c-.16016-.36816-.44727-.54492-.89648-.6084l-.57617-.06445-.04688-.25586h3.48828l2.72168,7.50684h.03223l2.80078-7.50684h3.50586l-.04883,.25586-.86328,.06445c-.44922,.04785-.64062,.19141-.64062,.31934l.16016,7.97168c.03125,.86426,.14355,1.00879,.7832,1.07227l.59277,.06445,.04785,.25586h-4.625l.04688-.25586,.80078-.08008c.46484-.04785,.5918-.28809,.56055-1.08887l-.19238-7.7793h-.04785l-3.42578,9.1084h-.41602l-3.2168-8.72363c-.03223-.1123-.16016-.24023-.20898-.30469l-.16016,7.45898c-.04688,1.05664,.16016,1.3125,1.13672,1.36133l.46484,.04785,.04785,.25586h-3.61816l.04883-.25586Z"/><path class="cls-1" d="M142.03418,121.22852c0-2.78516,2.46484-5.2666,5.47363-5.2666,3.08984,0,5.34668,2.12891,5.34668,5.21875,0,2.80078-2.43262,5.2334-5.47363,5.2334-3.08984,0-5.34668-2.09668-5.34668-5.18555Zm8.83496-.01562c0-3.02539-1.45605-4.91406-3.47266-4.91406-2.04883,0-3.37695,1.74414-3.37695,4.88184,0,3.04102,1.42383,4.91406,3.47266,4.91406s3.37695-1.72949,3.37695-4.88184Z"/><path class="cls-1" d="M154.0498,125.93457l.47949-.04785c.84863-.04883,1.00879-.30469,1.05664-1.40918l.20898-7.3623c-.16016-.36816-.44922-.54492-.89648-.6084l-.57617-.06445-.04883-.25586h3.49023l2.7207,7.50684h.03125l2.80176-7.50684h3.50488l-.04688,.25586-.86523,.06445c-.44727,.04785-.64062,.19141-.64062,.31934l.16016,7.97168c.0332,.86426,.14453,1.00879,.78516,1.07227l.5918,.06445,.04883,.25586h-4.62695l.04883-.25586,.7998-.08008c.46387-.04785,.59277-.28809,.56055-1.08887l-.19238-7.7793h-.04785l-3.4248,9.1084h-.41699l-3.21777-8.72363c-.03125-.1123-.15918-.24023-.20703-.30469l-.16016,7.45898c-.04883,1.05664,.16016,1.3125,1.13672,1.36133l.46387,.04785,.04785,.25586h-3.61719l.04785-.25586Z"/><path class="cls-1" d="M169.22559,125.93457l.55957-.06445c.5127-.04785,.73633-.16016,.73633-.27148v-8.86816c0-.12793-.0957-.17578-.81641-.24023l-.46387-.04785-.04785-.25586h8.01953l.14355,3.16895h-.35156l-.16016-.55957c-.49609-1.61719-1.04004-2.30566-3.3291-2.30566l-1.20117,.0166v4.40137h.625c1.4082-.06348,1.9043-.25586,2.19238-1.13672l.17676-.49609,.30273,.0166-.36719,3.61719-.30469-.01562-.04785-.48047c-.08008-.92871-.47949-1.10449-2.06543-1.16895l-.51172-.03125v4.60938l1.4248,.04785c2.38477-.01562,3.05762-.95996,3.60156-2.36914l.17578-.52832,.36816,.0166-.44824,3.20117h-8.25879l.04785-.25586Z"/><path class="cls-1" d="M182.25,117.6748h-.03223l.0166,6.83496c0,1.05664,.25586,1.28027,1.16797,1.36035l.44824,.06445,.04785,.25586h-3.53711l.04785-.25586,.44824-.06445c.7207-.06348,1.00879-.32031,1.00879-1.4248l.04785-6.83398c-.24023-.5127-.625-.97656-1.3291-1.10449l-.35156-.08008-.04785-.25684h3.23242l5.79492,7.37988,.03223-.0166-.0166-5.65039c0-1.05664-.25586-1.2959-1.15234-1.37598l-.46387-.06445-.04785-.25586h3.52148l-.04883,.25586-.44824,.06445c-.7041,.06348-.99219,.33594-.99219,1.44043l-.03223,8.33887h-.46387l-6.85059-8.61133Z"/><path class="cls-1" d="M195.54688,125.93457l.78418-.06445c.51172-.04785,.7041-.16016,.7041-.27148v-9.1084h-.43262c-1.56836,.06445-2.41699,1.07227-2.88086,2.11328l-.20801,.6084h-.36816l.44824-3.02539h8.80371l.25586,3.02539h-.33594l-.17676-.57617c-.51172-1.23242-1.2959-2.11328-2.83301-2.14551h-.46387v9.15625c0,.12793,.0957,.17578,.81641,.24023l.67188,.04785,.04883,.25586h-4.88281l.04883-.25586Z"/><path class="cls-1" d="M205.49707,125.88672l-.14355-2.6416h.33594l.57617,1.45703c.57617,.94434,1.4248,1.37598,2.43262,1.37598,1.34473-.01562,2.14551-.87988,2.14551-2.04883,0-1.2959-1.00879-1.80859-2.41699-2.30469-1.56934-.56055-2.81738-1.24805-2.81738-2.91309,0-1.45703,1.2002-2.83301,3.31348-2.84961,.87988,0,1.58398,.17676,2.17676,.33691l.67188-.22461,.03223,2.86523h-.30371l-.99316-2.14453c-.44824-.27246-.97559-.48047-1.64844-.48047-1.10449,0-1.84082,.73633-1.84082,1.64844,0,1.20117,1.04102,1.66504,2.30469,2.12891,1.76074,.6084,3.00977,1.36035,3.00977,3.1377,0,1.58398-1.45703,3.18457-3.72949,3.18457-1.10449,0-2.20898-.23926-3.10547-.52734Z"/><path class="cls-1" d="M3.00977,147.93457l.7832-.06445c.5127-.04785,.70508-.16016,.70508-.27148v-9.1084h-.43164c-1.56934,.06445-2.41797,1.07227-2.88184,2.11328l-.20801,.6084h-.36816l.44824-3.02539H9.85938l.25684,3.02539h-.33594l-.17676-.57617c-.51172-1.23242-1.2959-2.11328-2.83203-2.14551h-.46484v9.15625c0,.12793,.0957,.17578,.81641,.24023l.67188,.04785,.04883,.25586H2.96094l.04883-.25586Z"/><path class="cls-1" d="M13.95508,140.02734c-.5127-1.3125-.56055-1.47266-1.24902-1.52051l-.54395-.08008-.03223-.25684h4.65723l-.03125,.25684-.625,.04785c-.86328,.04785-.81641,.24023-.36719,1.4248l2.33594,6.30664h.08008l1.8418-5.09082c.76758-2.16016,.73633-2.5127-.57617-2.65625l-.35254-.03223-.04785-.25684h3.61719l-.04883,.25684-.31934,.06348c-.84863,.1123-1.05664,.30469-1.96875,2.83301l-2.59277,7.01172h-.625l-3.15234-8.30762Z"/><path class="cls-1" d="M31.13867,144.1084l-.51172,1.45703c-.64062,1.87305-.67285,2.17676,.55957,2.30469l.41602,.06445,.04785,.25586h-3.55273l.04785-.25586,.28809-.04785c.92773-.14453,1.08789-.35254,2.17676-3.3457l1.80859-5.04199-.14355-.52832c.43164-.14453,1.10352-.65625,1.28027-1.05664h.23926l2.80176,8.40332c.41602,1.24902,.62402,1.50488,1.24902,1.55273l.52734,.06445,.04883,.25586h-4.72266l.04883-.25586,.52734-.06445c.75195-.04785,.76855-.44824,.40039-1.56836l-.6875-2.19336h-2.84961Zm2.73633-.33594l-1.21582-3.88965h-.04785l-1.36133,3.88965h2.625Z"/><path class="cls-1" d="M42.37988,139.6748h-.03223l.01562,6.83496c0,1.05664,.25684,1.28027,1.16895,1.36035l.44824,.06445,.04785,.25586h-3.53711l.04785-.25586,.44824-.06445c.71973-.06348,1.00879-.32031,1.00879-1.4248l.04688-6.83398c-.23926-.5127-.62305-.97656-1.32812-1.10449l-.35156-.08008-.04883-.25684h3.23438l5.79395,7.37988,.03223-.0166-.0166-5.65039c0-1.05664-.25586-1.2959-1.15234-1.37598l-.46387-.06445-.04883-.25586h3.52148l-.04688,.25586-.44922,.06445c-.7041,.06348-.99219,.33594-.99219,1.44043l-.03125,8.33887h-.46484l-6.85059-8.61133Z"/><path class="cls-1" d="M53.55469,147.93457l.68848-.06445c.49609-.04785,.68848-.16016,.68848-.27148v-8.86816c0-.12793-.0957-.17578-.81641-.24023l-.56055-.04785-.04785-.25586h4.6416l-.04785,.25586-.67285,.06445c-.51172,.04785-.6875,.16016-.6875,.27148v8.86816c0,.12793,.0957,.17578,.81641,.24023l.54395,.04785,.04785,.25586h-4.6416l.04785-.25586Z"/><path class="cls-1" d="M60.49902,147.93457l.47949-.04785c.84863-.04883,1.00879-.30469,1.05664-1.40918l.20898-7.3623c-.16016-.36816-.44922-.54492-.89648-.6084l-.57617-.06445-.04883-.25586h3.49023l2.7207,7.50684h.03125l2.80176-7.50684h3.50488l-.04688,.25586-.86523,.06445c-.44727,.04785-.64062,.19141-.64062,.31934l.16016,7.97168c.0332,.86426,.14453,1.00879,.78516,1.07227l.5918,.06445,.04883,.25586h-4.62695l.04883-.25586,.7998-.08008c.46387-.04785,.59277-.28809,.56055-1.08887l-.19238-7.7793h-.04785l-3.4248,9.1084h-.41699l-3.21777-8.72363c-.03125-.1123-.15918-.24023-.20703-.30469l-.16016,7.45898c-.04883,1.05664,.16016,1.3125,1.13672,1.36133l.46387,.04785,.04785,.25586h-3.61719l.04785-.25586Z"/><path class="cls-1" d="M78.38867,144.1084l-.51172,1.45703c-.64062,1.87305-.67188,2.17676,.56055,2.30469l.41602,.06445,.04785,.25586h-3.55371l.04883-.25586,.28711-.04785c.92871-.14453,1.08887-.35254,2.17773-3.3457l1.80859-5.04199-.14453-.52832c.43164-.14453,1.10449-.65625,1.28125-1.05664h.23926l2.80176,8.40332c.41602,1.24902,.62402,1.50488,1.24805,1.55273l.52832,.06445,.04785,.25586h-4.72168l.04785-.25586,.52832-.06445c.75195-.04785,.76855-.44824,.39941-1.56836l-.6875-2.19336h-2.84961Zm2.7373-.33594l-1.21582-3.88965h-.04883l-1.36035,3.88965h2.625Z"/><path class="cls-1" d="M89.01465,147.93457l.78418-.06445c.51172-.04785,.70508-.16016,.70508-.27148v-9.1084h-.43262c-1.56934,.06445-2.41699,1.07227-2.88184,2.11328l-.20703,.6084h-.36914l.44922-3.02539h8.80273l.25586,3.02539h-.33594l-.17578-.57617c-.51172-1.23242-1.29688-2.11328-2.83301-2.14551h-.46387v9.15625c0,.12793,.0957,.17578,.81641,.24023l.67188,.04785,.04785,.25586h-4.88184l.04785-.25586Z"/><path class="cls-1" d="M98.49414,147.93457l.6875-.06445c.49609-.04785,.68945-.16016,.68945-.27148v-8.86816c0-.12793-.09668-.17578-.81641-.24023l-.56055-.04785-.04883-.25586h4.64258l-.04883,.25586-.67188,.06445c-.51172,.04785-.6875,.16016-.6875,.27148v8.86816c0,.12793,.0957,.17578,.81641,.24023l.54297,.04785,.04883,.25586h-4.64258l.04883-.25586Z"/><path class="cls-1" d="M105.09766,143.22852c0-2.78516,2.46484-5.2666,5.47363-5.2666,3.08887,0,5.34668,2.12891,5.34668,5.21875,0,2.80078-2.43359,5.2334-5.47461,5.2334-3.08984,0-5.3457-2.09668-5.3457-5.18555Zm8.83496-.01562c0-3.02539-1.45605-4.91406-3.47363-4.91406-2.04883,0-3.37695,1.74414-3.37695,4.88184,0,3.04102,1.42383,4.91406,3.47266,4.91406s3.37793-1.72949,3.37793-4.88184Z"/><path class="cls-1" d="M119.70898,139.6748h-.03223l.0166,6.83496c0,1.05664,.25586,1.28027,1.16797,1.36035l.44824,.06445,.04785,.25586h-3.53711l.04785-.25586,.44824-.06445c.7207-.06348,1.00781-.32031,1.00781-1.4248l.04883-6.83398c-.24023-.5127-.625-.97656-1.32812-1.10449l-.35352-.08008-.04688-.25684h3.23242l5.79492,7.37988,.03125-.0166-.01562-5.65039c0-1.05664-.25586-1.2959-1.15234-1.37598l-.46387-.06445-.04785-.25586h3.52148l-.04883,.25586-.44727,.06445c-.70508,.06348-.99316,.33594-.99316,1.44043l-.03223,8.33887h-.46387l-6.85059-8.61133Z"/><path class="cls-1" d="M137.37305,147.93457l.7832-.06445c.5127-.04785,.70508-.16016,.70508-.27148v-9.1084h-.43164c-1.56934,.06445-2.41797,1.07227-2.88184,2.11328l-.20801,.6084h-.36816l.44824-3.02539h8.80273l.25684,3.02539h-.33594l-.17676-.57617c-.51172-1.23242-1.2959-2.11328-2.83203-2.14551h-.46484v9.15625c0,.12793,.0957,.17578,.81641,.24023l.67188,.04785,.04883,.25586h-4.88281l.04883-.25586Z"/><path class="cls-1" d="M146.72949,147.93457l.7207-.06445c.38379-.03223,.7041-.16016,.7041-.27148v-8.86816c0-.12793-.0957-.17578-.81641-.24023l-.5918-.04785-.04883-.25586h4.51367c2.6582,0,3.98633,.89648,3.98633,2.56055,0,1.2168-.96094,2.19336-2.41699,2.5293l2.12891,3.29785c.65625,.99219,.94434,1.24805,1.63184,1.3125l.27344,.04785,.06348,.25586h-3.12207l-.28711-.52832-2.49805-4.29004c-.22363-.03125-.7832-.11133-1.02344-.20801v4.48242c0,.12793,.33594,.19141,.81641,.24023l.62402,.04785,.04785,.25586h-4.75391l.04785-.25586Zm6.54688-7.13867c0-1.47266-.87988-2.35352-2.59277-2.28906-.04883,0-.73633,.01562-.73633,.01562v4.33789c.27148,.08008,.81641,.16016,1.05664,.16016,1.4082-.03223,2.27246-.80078,2.27246-2.22461Z"/><path class="cls-1" d="M161.74219,144.1084l-.5127,1.45703c-.64062,1.87305-.67285,2.17676,.55957,2.30469l.41602,.06445,.04883,.25586h-3.55371l.04785-.25586,.28906-.04785c.92773-.14453,1.08789-.35254,2.17578-3.3457l1.80859-5.04199-.14355-.52832c.43262-.14453,1.10449-.65625,1.28027-1.05664h.24023l2.80078,8.40332c.41602,1.24902,.625,1.50488,1.24902,1.55273l.52832,.06445,.04785,.25586h-4.72168l.04785-.25586,.52832-.06445c.75195-.04785,.76758-.44824,.40039-1.56836l-.68848-2.19336h-2.84863Zm2.73633-.33594l-1.2168-3.88965h-.04785l-1.36035,3.88965h2.625Z"/><path class="cls-1" d="M171.23828,147.93457l.68848-.06445c.49609-.04785,.68848-.16016,.68848-.27148v-8.86816c0-.12793-.0957-.17578-.81641-.24023l-.56055-.04785-.04785-.25586h4.6416l-.04785,.25586-.67285,.06445c-.51172,.04785-.6875,.16016-.6875,.27148v8.86816c0,.12793,.0957,.17578,.81641,.24023l.54395,.04785,.04785,.25586h-4.6416l.04785-.25586Z"/><path class="cls-1" d="M178.25391,147.93457l.625-.06445c.51172-.04785,.67188-.16016,.67188-.27148v-8.86816c0-.12793-.06445-.17578-.80078-.24023l-.47949-.04785-.04785-.25586h4.72168l-.04785,.25586-.84863,.06445c-.49609,.04785-.7041,.14355-.7041,.27148v9.04395l1.07227,.06445c2.22461,0,2.7373-.83301,3.47363-2.5459l.19141-.5918h.36816l-.46387,3.44141h-7.7793l.04785-.25586Z"/><path class="cls-1" d="M188.63574,147.93457l.56055-.06445c.5127-.04785,.73633-.16016,.73633-.27148v-8.86816c0-.12793-.0957-.17578-.81641-.24023l-.46387-.04785-.04785-.25586h8.01855l.14453,3.16895h-.35254l-.16016-.55957c-.49609-1.61719-1.04004-2.30566-3.3291-2.30566l-1.2002,.0166v4.40137h.62402c1.4082-.06348,1.9043-.25586,2.19238-1.13672l.17676-.49609,.30371,.0166-.36816,3.61719-.30371-.01562-.04785-.48047c-.08008-.92871-.48047-1.10449-2.06543-1.16895l-.51172-.03125v4.60938l1.42383,.04785c2.38574-.01562,3.05762-.95996,3.60156-2.36914l.17676-.52832,.36816,.0166-.44824,3.20117h-8.25977l.04785-.25586Z"/><path class="cls-1" d="M199.49023,147.93457l.7207-.06445c.38379-.03223,.7041-.16016,.7041-.27148v-8.86816c0-.12793-.0957-.17578-.81641-.24023l-.5918-.04785-.04883-.25586h4.51465c2.65625,0,3.98535,.89648,3.98535,2.56055,0,1.2168-.96094,2.19336-2.41699,2.5293l2.12891,3.29785c.65625,.99219,.94434,1.24805,1.63281,1.3125l.27148,.04785,.06445,.25586h-3.12109l-.28809-.52832-2.49707-4.29004c-.22461-.03125-.78418-.11133-1.02441-.20801v4.48242c0,.12793,.33594,.19141,.81641,.24023l.62402,.04785,.04785,.25586h-4.75391l.04785-.25586Zm6.54688-7.13867c0-1.47266-.88086-2.35352-2.59277-2.28906-.04785,0-.73633,.01562-.73633,.01562v4.33789c.27148,.08008,.81641,.16016,1.05566,.16016,1.40918-.03223,2.27344-.80078,2.27344-2.22461Z"/></g></g></g></svg>